<?xml version="1.0" encoding="UTF-8" standalone="no"?>
<!-- The icon can be used freely in both personal and commercial projects with no attribution required, but always appreciated. 
You may NOT sub-license, resell, rent, redistribute or otherwise transfer the icon without express written permission from iconmonstr.com -->

<svg
     xmlns:dc="http://purl.org/dc/elements/1.1/"
     xmlns:cc="http://creativecommons.org/ns#"
     xmlns:rdf="http://www.w3.org/1999/02/22-rdf-syntax-ns#"
     xmlns:svg="http://www.w3.org/2000/svg"
     xmlns="http://www.w3.org/2000/svg"
     xmlns:sodipodi="http://sodipodi.sourceforge.net/DTD/sodipodi-0.dtd"
     xmlns:inkscape="http://www.inkscape.org/namespaces/inkscape"
     version="1.1"
     x="0px"
     y="0px"
     width="512px"
     height="512px"
     viewBox="0 0 512 512"
     enable-background="new 0 0 512 512"
     xml:space="preserve"
     id="svg2"
     inkscape:version="0.48.3.1 r9886"
     sodipodi:docname="iconmonstr-book-11-icon.svg?1350263222"
     inkscape:export-filename="/home/plq/src/github/plq/spyne-docs/images/book.png"
     inkscape:export-xdpi="4.0300002"
     inkscape:export-ydpi="4.0300002"><metadata
         id="metadata9"><rdf:RDF><cc:Work
                 rdf:about=""><dc:format>image/svg+xml</dc:format><dc:type
                     rdf:resource="http://purl.org/dc/dcmitype/StillImage" /><dc:title></dc:title></cc:Work></rdf:RDF></metadata><defs
         id="defs7" /><sodipodi:namedview
         pagecolor="#ffffff"
         bordercolor="#666666"
         borderopacity="1"
         objecttolerance="10"
         gridtolerance="10"
         guidetolerance="10"
         inkscape:pageopacity="0"
         inkscape:pageshadow="2"
         inkscape:window-width="640"
         inkscape:window-height="480"
         id="namedview5"
         showgrid="false"
         inkscape:zoom="0.4609375"
         inkscape:cx="256"
         inkscape:cy="256"
         inkscape:window-x="0"
         inkscape:window-y="0"
         inkscape:window-maximized="0"
         inkscape:current-layer="svg2" /><path
         id="book-11-icon"
         d="M438.865,361.328V462H104.863c-27.613,0-50-22.386-50-50V100c0-27.614,22.387-50,50-50h334.002v38  c0,0-307.098,0-324.002,0c-23.611,0-23.611,34.528,0,34.528c19.098,0,319.02,0,324.002,0v95.2h-40v-54.631H146.391V422h252.475  v-60.672H438.865z M457.137,232.729c0,8.8,0,65.801,0,74.467c0,13.334-9.553,24-27.686,24.133c0,0-63.395,0-108.475,0  c-23.082,0-41.799-18.71-41.799-41.793v-0.013c0-23.088,18.711-41.794,41.799-41.794c44.707,0,107.277,0,107.473,0  C442.449,247.729,451.584,245.195,457.137,232.729z M341.283,289.528c0-9.112-7.387-16.5-16.5-16.5s-16.5,7.388-16.5,16.5  s7.387,16.5,16.5,16.5S341.283,298.641,341.283,289.528z"
         style="fill:#ffffff" /></svg>