<svg id="Logo" xmlns="http://www.w3.org/2000/svg" viewBox="0 0 587.66 108.43"><title>logo_PyCharm</title><rect y="3.66" width="85.04" height="85.04"/><path d="M164.13,160.07h8.7c5.08,0,8.15,3,8.15,7.36v0.06c0,4.93-3.83,7.48-8.6,7.48h-3.56v6.38h-4.68V160.07Zm8.39,10.73c2.34,0,3.71-1.4,3.71-3.22v-0.06c0-2.1-1.46-3.22-3.8-3.22h-3.62v6.51h3.71Z" transform="translate(-156.17 -145.78)" fill="#fff"/><path d="M182.8,170.77v-0.06a10.82,10.82,0,0,1,11.1-11,11,11,0,0,1,8.39,3.28l-3,3.44a7.85,7.85,0,0,0-5.44-2.4c-3.59,0-6.17,3-6.17,6.63v0.06c0,3.65,2.52,6.69,6.17,6.69,2.43,0,3.92-1,5.59-2.49l3,3a10.88,10.88,0,0,1-8.73,3.8,10.74,10.74,0,0,1-10.91-10.95" transform="translate(-156.17 -145.78)" fill="#fff"/><rect x="7.97" y="72.76" width="31.89" height="5.31" fill="#fff"/><path d="M262.38,149.43H297.1c20.28,0,32.54,12,32.54,29.39v0.24c0,19.67-15.3,29.87-34.36,29.87H281.08v25.5h-18.7v-85Zm33.51,42.86c9.35,0,14.81-5.59,14.81-12.87v-0.24c0-8.38-5.83-12.87-15.18-12.87H281.08v26h14.81Z" transform="translate(-156.17 -145.78)"/><path d="M378.95,169.34h19.19l-25,66.66c-5,13.24-10.32,18.21-21.37,18.21a30.56,30.56,0,0,1-16.39-4.49l6.19-13.36a16.77,16.77,0,0,0,7.89,2.55c3.16,0,4.86-1,6.44-4.25l-25.5-65.33h19.55l14.81,44.32Z" transform="translate(-156.17 -145.78)"/><path d="M395.46,192.17v-0.24c0-24.16,18.21-44,44.32-44,16,0,25.62,5.34,33.51,13.11l-11.9,13.72c-6.56-5.95-13.24-9.59-21.74-9.59-14.33,0-24.65,11.9-24.65,26.47v0.24c0,14.57,10.08,26.71,24.65,26.71,9.71,0,15.66-3.89,22.34-10l11.9,12c-8.74,9.35-18.46,15.18-34.85,15.18C414,235.88,395.46,216.57,395.46,192.17Z" transform="translate(-156.17 -145.78)"/><path d="M475.72,145.78h18.46v32.79c4.25-5.46,9.71-10.44,19.06-10.44,14,0,22.1,9.23,22.1,24.16v42.13H516.88V198.12c0-8.74-4.13-13.24-11.17-13.24s-11.54,4.49-11.54,13.24v36.31H475.72V145.78Z" transform="translate(-156.17 -145.78)"/><path d="M537.77,215.72v-0.24c0-14.21,10.81-20.76,26.23-20.76a46.25,46.25,0,0,1,15.91,2.67V196.3c0-7.65-4.74-11.9-14-11.9-7,0-12,1.34-18,3.52l-4.61-14.09a57.42,57.42,0,0,1,25.26-5.22c10.08,0,17.36,2.67,22,7.29,4.86,4.86,7,12,7,20.76v37.76H579.78v-7c-4.49,5-10.69,8.26-19.67,8.26C547.85,235.64,537.77,228.6,537.77,215.72Zm42.38-4.25V208.2a28.62,28.62,0,0,0-11.78-2.43c-7.89,0-12.75,3.16-12.75,9V215c0,5,4.13,7.89,10.08,7.89C574.32,222.89,580.15,218.15,580.15,211.47Z" transform="translate(-156.17 -145.78)"/><path d="M601.64,169.34H620.1v13.11c3.76-9,9.84-14.81,20.76-14.33v19.31h-1c-12.26,0-19.79,7.41-19.79,22.95v24H601.64V169.34Z" transform="translate(-156.17 -145.78)"/><path d="M644.5,169.34H663v9.23c4.25-5.46,9.84-10.44,19.19-10.44,8.5,0,14.94,3.76,18.34,10.32,5.71-6.68,12.51-10.32,21.37-10.32,13.72,0,22,8.26,22,23.92v42.38H725.37V198.12c0-8.74-3.89-13.24-10.81-13.24s-11.17,4.49-11.17,13.24v36.31H684.94V198.12c0-8.74-3.89-13.24-10.81-13.24S663,189.38,663,198.12v36.31H644.5V169.34Z" transform="translate(-156.17 -145.78)"/></svg>